<svg
  xmlns="http://www.w3.org/2000/svg"
  viewBox="0 0 721.9 169.88"
  className="w-36 h-10 text-gray-900 dark:text-white"
>
  {/* Use fill-current & stroke-current to inherit text color */}
  <path
    className="fill-current stroke-current stroke-2"
    d="M201.8,70.22c-.43.85-.89,1.69-1.28,2.56a49.34,49.34,0,0,1-18.37,22,48.4,48.4,0,0,1-21.63,7.78,47.78,47.78,0,0,1-32.38-7.74,47.9,47.9,0,0,1-21.58-32.85,48,48,0,0,1,7.09-35A48.77,48.77,0,0,1,135.33,8.33c1-.47,2.06-1,3.09-1.5h.18c-1.07,2.56-2.31,5.06-3.18,7.69-4.84,14.64-3,28.49,5.6,41.25a44.51,44.51,0,0,0,28.56,19,45.1,45.1,0,0,0,28.62-3.22c1.19-.54,2.4-1,3.6-1.56Z"
  />
  <text
    className="fill-current stroke-current text-xl font-bold"
    transform="translate(219.23 112.79)"
  >
    AD-DEEN NIKKAH SERVICE
  </text>
</svg>
<svg
  xmlns="http://www.w3.org/2000/svg"
  viewBox="0 0 721.9 169.88"
  className="w-36 h-10 text-gray-900 dark:text-white"
>
  {/* Use fill-current & stroke-current to inherit text color */}
  <path
    className="fill-current stroke-current stroke-2"
    d="M201.8,70.22c-.43.85-.89,1.69-1.28,2.56a49.34,49.34,0,0,1-18.37,22,48.4,48.4,0,0,1-21.63,7.78,47.78,47.78,0,0,1-32.38-7.74,47.9,47.9,0,0,1-21.58-32.85,48,48,0,0,1,7.09-35A48.77,48.77,0,0,1,135.33,8.33c1-.47,2.06-1,3.09-1.5h.18c-1.07,2.56-2.31,5.06-3.18,7.69-4.84,14.64-3,28.49,5.6,41.25a44.51,44.51,0,0,0,28.56,19,45.1,45.1,0,0,0,28.62-3.22c1.19-.54,2.4-1,3.6-1.56Z"
  />
  <text
    className="fill-current stroke-current text-xl font-bold"
    transform="translate(219.23 112.79)"
  >
    AD-DEEN NIKKAH SERVICE
  </text>
</svg>
